<?xml version="1.0" encoding="UTF-8"?>
<svg width="828px" height="132px" viewBox="0 0 828 132" version="1.1" xmlns="http://www.w3.org/2000/svg" xmlns:xlink="http://www.w3.org/1999/xlink">
    <title>编组 2</title>
    <defs>
        <linearGradient x1="83.3513643%" y1="43.5368754%" x2="32.2149142%" y2="54.7902494%" id="linearGradient-1">
            <stop stop-color="#3B33FE" offset="0%"></stop>
            <stop stop-color="#7629F7" offset="100%"></stop>
        </linearGradient>
        <polygon id="path-2" points="84 16.0078669 123.568571 0.0272100169 168 18.0074299 84 52 0 18.0074299 44.4986684 -2.88657986e-15"></polygon>
        <filter x="-11.5%" y="-25.7%" width="123.0%" height="151.4%" filterUnits="objectBoundingBox" id="filter-4">
            <feGaussianBlur stdDeviation="6" in="SourceGraphic"></feGaussianBlur>
        </filter>
        <linearGradient x1="0%" y1="46.9183755%" x2="100%" y2="46.9181632%" id="linearGradient-5">
            <stop stop-color="#00FFE8" offset="0%"></stop>
            <stop stop-color="#11B2E6" offset="23.8110574%"></stop>
            <stop stop-color="#1A85E6" offset="49.0925558%"></stop>
            <stop stop-color="#1E74E5" offset="50.3938053%"></stop>
            <stop stop-color="#2165E5" offset="100%"></stop>
        </linearGradient>
        <radialGradient cx="-13.4936742%" cy="68.5784025%" fx="-13.4936742%" fy="68.5784025%" r="281.898168%" gradientTransform="translate(-0.1349, 0.6858), scale(0.4048, 1), rotate(-5.9173), translate(0.1349, -0.6858)" id="radialGradient-6">
            <stop stop-color="#00FFE8" offset="0%"></stop>
            <stop stop-color="#11B2E6" offset="38.5820008%"></stop>
            <stop stop-color="#1A85E6" offset="57.9163762%"></stop>
            <stop stop-color="#2165E5" offset="100%"></stop>
        </radialGradient>
        <linearGradient x1="100%" y1="51.1437112%" x2="0%" y2="50%" id="linearGradient-7">
            <stop stop-color="#7629F6" offset="0%"></stop>
            <stop stop-color="#22A0EA" offset="63.8563537%"></stop>
            <stop stop-color="#0FBAE7" offset="100%"></stop>
        </linearGradient>
    </defs>
    <g id="页面-1" stroke="none" stroke-width="1" fill="none" fill-rule="evenodd">
        <g id="01备份-3" transform="translate(-80, -134)">
            <g id="编组-2" transform="translate(80, 134)">
                <g id="编组">
                    <g id="矩形备份-4" transform="translate(0, 80)">
                        <mask id="mask-3" fill="white">
                            <use xlink:href="#path-2"></use>
                        </mask>
                        <use id="蒙版" fill="url(#linearGradient-1)" xlink:href="#path-2"></use>
                        <polygon fill-opacity="0.55" fill="#010035" filter="url(#filter-4)" mask="url(#mask-3)" points="109.417136 1.73595563 187.834272 -29.9973777 187.834272 8.26928897 109.417136 40.0026223 31 8.26928897 31 -29.9973777"></polygon>
                    </g>
                    <polygon id="矩形备份-8" fill="url(#linearGradient-5)" points="84 78 168 44 168 64 84 98 0 64 0 44"></polygon>
                    <polygon id="矩形" fill="url(#radialGradient-6)" points="84 0 168 34 84 68 0 34"></polygon>
                </g>
                <g id="帧界" transform="translate(228, 19)" fill="#0FBAE7" fill-rule="nonzero">
                    <path d="M11.5078806,93.248 L19.4666018,22.7748571 L14.4117383,22.7748571 L8.81912347,72.2994286 L0,72.2994286 L5.37751431,22.3451429 C5.73601526,19.1222857 6.5784925,16.8662857 7.90494603,15.5771429 C9.23139956,14.288 11.3644802,13.6434286 14.3041881,13.6434286 L20.4345544,13.6434286 L22.0478087,0 L31.0820327,0 L29.4687784,13.6434286 L34.7387424,13.6434286 C37.3916495,13.6434286 39.3634047,14.216381 40.6540082,15.3622857 C41.9446116,16.5081905 42.5899133,18.3344762 42.5899133,20.8411429 C42.5899133,21.8438095 42.5540632,22.631619 42.482363,23.2045714 L37.8577007,64.2422857 C37.4274996,67.1786667 36.459547,69.2914286 34.953843,70.5805714 C33.448139,71.8697143 31.583934,72.4068571 29.3612281,72.192 C28.0706247,72.0487619 26.3498201,71.5832381 24.1988144,70.7954286 L25.2743172,62.2011429 C25.9913192,62.487619 26.5290706,62.6666667 26.8875715,62.7382857 C27.4611731,63.0247619 27.9630744,63.168 28.3932755,63.168 C28.9668771,63.168 29.2536778,62.8099048 29.2536778,62.0937143 L33.3405887,22.7748571 L28.5008258,22.7748571 L20.5421047,93.248 L11.5078806,93.248 Z M94.6442518,9.23885714 L93.568749,18.2628571 L72.2737923,18.2628571 L71.41339,25.4605714 L82.2759689,25.4605714 C85.0722764,25.4605714 87.1336568,26.0872381 88.4601104,27.3405714 C89.7865639,28.5939048 90.4497907,30.4739048 90.4497907,32.9805714 C90.4497907,33.911619 90.4139406,34.6278095 90.3422404,35.1291429 L86.4704301,68.8617143 L76.8984546,68.8617143 L80.9853655,35.0217143 L55.0657465,35.0217143 L51.0863859,68.7542857 L41.9446116,68.7542857 L45.9239722,33.9474286 C46.2824731,30.7961905 47.1070253,28.5939048 48.3976288,27.3405714 C49.6882322,26.0872381 51.7316876,25.4605714 54.5279951,25.4605714 L61.626314,25.4605714 L64.4226214,0 L74.3172477,0 L73.2417449,9.23885714 L94.6442518,9.23885714 Z M82.1684186,93.1405714 C81.2363161,91.9946667 80.7344148,91.3859048 80.6627146,91.3142857 C79.8023123,90.3832381 77.6692317,87.9660952 74.2634726,84.0628571 C70.8577135,80.159619 67.3981793,76.4175238 63.88487,72.8365714 C61.3036631,77.2053333 58.1130046,81.0548571 54.3128945,84.3851429 C50.5127844,87.7154286 45.9956724,90.920381 40.7615585,94 L31.7273344,88.736 C40.9049588,83.2213333 47.6089267,77.8499048 51.8392379,72.6217143 C56.5714505,66.8205714 59.5111583,60.0167619 60.6583614,52.2102857 L62.379166,39.9634286 L72.0586917,39.9634286 L70.5529877,52.5325714 C69.907686,56.9013333 68.9397334,60.912 67.64913,64.5645714 C74.8191491,70.7238095 82.9571207,78.6735238 92.063045,88.4137143 L82.1684186,93.1405714 Z" id="形状"></path>
                    <path d="M169.348168,93.0331429 L159.023341,93.0331429 L162.680051,59.3005714 L171.176523,59.3005714 C165.942409,55.2899048 161.246047,50.9927619 157.087436,46.4091429 L149.451366,46.4091429 C144.790853,51.2792381 139.413339,55.6121905 133.318823,59.408 L142.137946,59.408 C141.134143,67.5009524 138.947288,74.3584762 135.577379,79.9805714 C132.20747,85.6026667 127.403557,90.24 121.16564,93.8925714 L111.808765,88.9508571 C117.974982,85.5131429 122.689269,81.4666667 125.951628,76.8114286 C129.213987,72.1561905 131.203667,66.6773333 131.920669,60.3748571 C125.682752,64.1706667 118.799534,67.4651429 111.271014,70.2582857 L102.666991,63.3828571 C116.290027,58.584381 127.152606,52.9264762 135.254728,46.4091429 L115.788126,46.4091429 L119.982587,9.99085714 C120.771289,5.19238095 123.460046,2.79314286 128.048859,2.79314286 L184.405209,2.79314286 C186.843015,2.79314286 188.689295,3.43771429 189.944048,4.72685714 C191.198802,6.016 191.826178,7.87809524 191.826178,10.3131429 C191.826178,11.1725714 191.790328,11.8529524 191.718628,12.3542857 L188.492119,46.4091429 L169.99347,46.4091429 C173.86528,49.9184762 178.238992,53.087619 183.114605,55.9165714 C187.990218,58.7455238 193.618683,61.3417143 200,63.7051429 L190.858226,70.688 C184.620309,68.2529524 178.597493,64.8868571 172.789778,60.5897143 L169.348168,93.0331429 Z M150.634419,11.6022857 L130.199864,11.6022857 L129.231912,20.304 L149.774016,20.304 L150.634419,11.6022857 Z M180.425848,20.304 L181.28625,11.6022857 L160.636595,11.6022857 L159.776193,20.304 L180.425848,20.304 Z M148.806064,28.576 L128.263959,28.576 L127.296007,37.6 L147.838111,37.6 L148.806064,28.576 Z M158.80824,28.576 L157.840288,37.6 L178.705043,37.6 L179.565446,28.576 L158.80824,28.576 Z" id="形状"></path>
                </g>
                <g id="FrameOS" transform="translate(448, 47)" fill="url(#linearGradient-7)" fill-rule="nonzero">
                    <path d="M51.1808118,0.347826087 L50.0415129,9.91304348 L17.2647601,9.91304348 L14.8108856,29.3043478 L44.5202952,29.3043478 L43.3809963,38.8695652 L13.6715867,38.8695652 L10.3413284,65.6521739 L0,65.6521739 L8.06273063,0.347826087 L51.1808118,0.347826087 Z M77.1217712,17.2173913 C80.0430504,17.2173913 82.5261378,17.3043478 84.5710332,17.4782609 L82.9935424,26.6956522 C79.3711562,26.5797101 77.0341328,26.5217391 75.9824723,26.5217391 C72.2432349,26.5217391 69.4388069,27.4057971 67.5691882,29.173913 C65.6995695,30.942029 64.5310578,33.8550725 64.0636531,37.9130435 L60.5581181,65.6521739 L50.4797048,65.6521739 L53.8976015,38.173913 C54.7739852,30.8115942 57.0087638,25.4782609 60.6019373,22.173913 C64.1951107,18.8695652 69.701722,17.2173913 77.1217712,17.2173913 Z M109.285055,17.2173913 C115.302891,17.2173913 119.860086,18.6376812 122.956642,21.4782609 C126.053198,24.3188406 127.601476,28.115942 127.601476,32.8695652 C127.601476,33.3913043 127.54305,34.2898551 127.426199,35.5652174 L123.833026,65.6521739 L98.4178967,65.6521739 C94.0359779,65.6521739 90.5304428,64.4202899 87.9012915,61.9565217 C85.2721402,59.4927536 83.9575646,56.2898551 83.9575646,52.3478261 C83.9575646,51.4782609 83.9867774,50.8115942 84.045203,50.3478261 C84.5710332,46.7536232 85.5058426,43.8985507 86.849631,41.7826087 C88.1934194,39.6666667 90.1360701,38.1304348 92.677583,37.173913 C95.2190959,36.2173913 98.5639606,35.7391304 102.712177,35.7391304 L117.435424,35.7391304 L117.523063,35.0434783 C117.581488,34.7536232 117.610701,34.3478261 117.610701,33.826087 C117.610701,31.5652174 116.851169,29.7391304 115.332103,28.3478261 C113.813038,26.9565217 111.446802,26.2608696 108.233395,26.2608696 L105.954797,26.2608696 C100.75492,26.2608696 96.0808733,26.4057971 91.9326568,26.6956522 L93.2472325,17.826087 L95.7887454,17.6521739 C96.7235547,17.5942029 98.3740775,17.5072464 100.740314,17.3913043 C103.10655,17.2753623 105.166052,17.2173913 106.918819,17.2173913 L109.285055,17.2173913 Z M96.5336716,45.6086957 C95.2190959,46.5072464 94.4157442,48.0869565 94.1236162,50.3478261 L94.0359779,51.3913043 C94.0359779,53.0724638 94.5179889,54.3623188 95.4820111,55.2608696 C96.4460332,56.1594203 97.8336408,56.6086957 99.6448339,56.6086957 L114.893911,56.6086957 L116.383764,44.4347826 L101.835793,44.3478261 C99.6156212,44.2898551 97.8482472,44.7101449 96.5336716,45.6086957 Z M179.22048,26.5217391 L174.488007,65.6521739 L164.409594,65.6521739 L169.229705,26.5217391 L149.51107,26.5217391 L144.778598,65.6521739 L134.700185,65.6521739 L140.659594,17.2173913 L189.737085,17.2173913 C201.831181,17.2173913 207.878229,22.7246377 207.878229,33.7391304 C207.878229,35.0724638 207.79059,36.5217391 207.615314,38.0869565 L204.197417,65.6521739 L194.119004,65.6521739 L197.5369,37.826087 C197.653752,36.6666667 197.712177,35.8550725 197.712177,35.3913043 C197.712177,29.4782609 194.674047,26.5217391 188.597786,26.5217391 L179.22048,26.5217391 Z M241.619004,16.8695652 C247.636839,16.8695652 252.179428,18.2753623 255.246771,21.0869565 C258.314114,23.8985507 259.847786,28.057971 259.847786,33.5652174 C259.847786,34.8405797 259.760148,36.2318841 259.584871,37.7391304 L258.620849,45.5652174 L225.931734,45.5652174 L225.931734,45.6521739 C225.814883,46.9275362 225.756458,47.7971014 225.756458,48.2608696 C225.756458,51.2173913 226.618235,53.4057971 228.34179,54.826087 C230.065344,56.2463768 232.972017,56.9565217 237.061808,56.9565217 L241.356089,56.9565217 C244.394219,56.9565217 249.00984,56.6956522 255.202952,56.173913 L254.23893,65.2173913 C249.097478,65.7391304 244.481857,66 240.392066,66 L236.097786,66 C229.02829,66 223.84302,64.5797101 220.541974,61.7391304 C217.240929,58.8985507 215.590406,54.7246377 215.590406,49.2173913 C215.590406,47.884058 215.678044,46.5217391 215.853321,45.1304348 L216.729705,37.826087 C217.547663,30.8695652 219.855474,25.6376812 223.653137,22.1304348 C227.4508,18.6231884 232.855166,16.8695652 239.866236,16.8695652 L241.619004,16.8695652 Z M249.594096,37.1304348 L249.594096,37.0434783 C249.710947,35.7681159 249.769373,34.8405797 249.769373,34.2608696 C249.769373,31.4782609 249.024446,29.3623188 247.534594,27.9130435 C246.044742,26.4637681 243.693112,25.7391304 240.479705,25.7391304 L238.726937,25.7391304 C231.832718,25.7391304 227.918204,29.5362319 226.983395,37.1304348 L249.594096,37.1304348 Z M304.017528,0 C311.729705,0.0579710145 317.396986,1.72463768 321.019373,5 C324.641759,8.27536232 326.452952,13.4202899 326.452952,20.4347826 C326.452952,22.2318841 326.306888,24.4347826 326.01476,27.0434783 L324.700185,38.9565217 C323.414822,48.4057971 320.493542,55.2608696 315.936347,59.5217391 C311.379151,63.7826087 304.660209,65.942029 295.77952,66 L289.29428,66 C281.582103,65.942029 275.914822,64.2898551 272.292435,61.0434783 C268.670049,57.7971014 266.858856,52.6956522 266.858856,45.7391304 C266.858856,43.942029 267.00492,41.6811594 267.297048,38.9565217 L268.611624,27.0434783 C269.838561,17.5942029 272.745234,10.7391304 277.331642,6.47826087 C281.91805,2.2173913 288.651599,0.0579710145 297.532288,0 L304.017528,0 Z M277.550738,39.4782609 C277.317036,41.7971014 277.200185,43.4202899 277.200185,44.3478261 C277.200185,48.5797101 278.208026,51.6376812 280.223708,53.5217391 C282.239391,55.4057971 285.555043,56.3768116 290.170664,56.4347826 L297.181734,56.4347826 C302.498462,56.3768116 306.456796,55.0289855 309.056734,52.3913043 C311.656673,49.7536232 313.365621,45.4492754 314.183579,39.4782609 L315.76107,26.5217391 C315.994772,24.2028986 316.111624,22.5797101 316.111624,21.6521739 C316.111624,17.4202899 315.103782,14.3623188 313.0881,12.4782609 C311.072417,10.5942029 307.756765,9.62318841 303.141144,9.56521739 L296.130074,9.56521739 C290.813346,9.62318841 286.855012,10.9710145 284.255074,13.6086957 C281.655135,16.2463768 279.946187,20.5507246 279.128229,26.5217391 L277.550738,39.4782609 Z M348.888376,66 C341.234625,66 334.924662,65.6231884 329.958487,64.8695652 L331.185424,55.1304348 C338.313346,56 344.594096,56.4347826 350.027675,56.4347826 L351.166974,56.4347826 C354.847786,56.4347826 357.754459,56.0869565 359.886993,55.3913043 C362.019526,54.6956522 363.553198,53.6811594 364.488007,52.3478261 C365.422817,51.0144928 366.007073,49.3043478 366.240775,47.2173913 C366.357626,46.173913 366.416052,45.4492754 366.416052,45.0434783 C366.416052,43.0144928 365.948647,41.4782609 365.013838,40.4347826 C364.079028,39.3913043 362.691421,38.6521739 360.851015,38.2173913 C359.010609,37.7826087 356.25,37.3333333 352.569188,36.8695652 C348.362546,36.4057971 345.032288,35.6811594 342.578413,34.6956522 C340.124539,33.7101449 338.298739,32.2753623 337.101015,30.3913043 C335.90329,28.5072464 335.304428,25.9710145 335.304428,22.7826087 C335.304428,21.5072464 335.392066,20.0869565 335.567343,18.5217391 C336.326876,11.9710145 338.547048,7.30434783 342.22786,4.52173913 C345.908672,1.73913043 351.54674,0.347826087 359.142066,0.347826087 L365.276753,0.347826087 C369.717097,0.347826087 374.624846,0.405797101 380,0.52173913 L378.860701,10.0869565 C375.764145,10.0869565 373.397909,10.057971 371.761993,10 L364.137454,9.91304348 L358.002768,9.91304348 C353.7377,9.91304348 350.626538,10.6521739 348.66928,12.1304348 C346.712023,13.6086957 345.733395,16.4057971 345.733395,20.5217391 C345.733395,22.3188406 346.083948,23.6666667 346.785055,24.5652174 C347.486162,25.4637681 348.450185,26.0869565 349.677122,26.4347826 C350.904059,26.7826087 352.890529,27.1594203 355.636531,27.5652174 C356.162362,27.6231884 357.214022,27.7681159 358.791513,28 C363.115006,28.6376812 366.562116,29.4782609 369.132841,30.5217391 C371.703567,31.5652174 373.631611,33.057971 374.916974,35 C376.202337,36.942029 376.845018,39.5652174 376.845018,42.8695652 C376.845018,44.0869565 376.75738,45.3913043 376.582103,46.7826087 C375.997847,51.5942029 374.727091,55.3913043 372.769834,58.173913 C370.812577,60.9565217 367.993542,62.9565217 364.312731,64.173913 C360.631919,65.3913043 355.870234,66 350.027675,66 L348.888376,66 Z" id="形状结合"></path>
                </g>
            </g>
        </g>
    </g>
</svg>